<svg width="19" height="21" viewBox="0 0 19 21" fill="none" xmlns="http://www.w3.org/2000/svg">
<path d="M7.95553 20.8009C6.47007 20.8009 5.16957 20.549 4.05695 20.0509C2.94432 19.5528 2.08122 18.8549 1.47646 17.963C0.868775 17.071 0.566406 16.0633 0.566406 14.9397C0.566406 13.8161 0.833545 12.8518 1.36491 11.9714C1.89627 11.0911 2.77111 10.3961 3.98355 9.88348C5.19599 9.37091 6.80474 9.11318 8.81275 9.11318H14.5697V12.1539H9.14742C7.56215 12.1539 6.49649 12.4058 5.95339 12.9039C5.40735 13.4049 5.13728 14.0217 5.13728 14.7543C5.13728 15.5855 5.47194 16.2457 6.14128 16.7322C6.81062 17.2216 7.73829 17.4649 8.92725 17.4649C10.1162 17.4649 11.0879 17.2072 11.9921 16.6946C12.8963 16.182 13.5451 15.4262 13.9414 14.4242L14.7223 17.1724C14.2761 18.3221 13.4776 19.2111 12.3268 19.8482C11.176 20.4824 9.71989 20.8009 7.96141 20.8009H7.95553ZM14.1968 20.5461V16.5903L13.9355 15.7476V8.82359C13.9355 7.47991 13.5275 6.43739 12.7114 5.69026C11.8952 4.94602 10.6564 4.57245 8.9977 4.57245C7.88214 4.57245 6.78712 4.7433 5.70972 5.08502C4.63232 5.42673 3.72226 5.90455 2.97953 6.51268L1.1594 3.17953C2.22506 2.37448 3.49329 1.76924 4.967 1.36671C6.44072 0.964186 7.97021 0.761475 9.55255 0.761475C12.4237 0.761475 14.646 1.43911 16.2195 2.79438C17.7901 4.14965 18.5769 6.24337 18.5769 9.07843V20.5461H14.1939H14.1968Z" fill="white"/>
</svg>
