<svg width="21" height="21" viewBox="0 0 21 21" fill="none" xmlns="http://www.w3.org/2000/svg">
<path d="M11.2509 20.7994C9.04621 20.7994 7.12333 20.3651 5.47641 19.4992C3.82949 18.6333 2.5554 17.4431 1.65121 15.9257C0.747017 14.4111 0.294922 12.691 0.294922 10.7594C0.294922 8.82789 0.735272 7.07878 1.61304 5.57582C2.49081 4.07286 3.70619 2.89424 5.2533 2.03995C6.80041 1.18567 8.56476 0.75708 10.5463 0.75708C12.5279 0.75708 14.1983 1.17409 15.7102 2.00231C17.2192 2.83342 18.4081 4.00625 19.2771 5.5208C20.1431 7.03534 20.5776 8.8192 20.5776 10.8695C20.5776 11.0664 20.5717 11.2865 20.56 11.5297C20.5482 11.773 20.5277 12.0047 20.5042 12.2247H3.97627V9.18408H18.0529L16.2328 10.1368C16.2563 9.01322 16.0214 8.02573 15.5282 7.16855C15.0321 6.31427 14.3569 5.64242 13.5026 5.15302C12.6483 4.66362 11.6648 4.42036 10.5493 4.42036C9.43373 4.42036 8.41504 4.66362 7.56075 5.15302C6.70647 5.64242 6.03713 6.32006 5.55568 7.18592C5.07422 8.05179 4.83056 9.07403 4.83056 10.244V10.9766C4.83056 12.1495 5.10358 13.1862 5.64668 14.0897C6.18979 14.9932 6.95893 15.6911 7.94826 16.1776C8.93759 16.667 10.0766 16.9103 11.3654 16.9103C12.481 16.9103 13.482 16.7394 14.3745 16.3977C15.2669 16.056 16.0566 15.5174 16.7524 14.7847L19.2419 17.6053C18.3494 18.6304 17.2309 19.4181 15.8805 19.9683C14.5301 20.5185 12.9888 20.7936 11.2568 20.7936L11.2509 20.7994Z" fill="white"/>
</svg>
