<svg width="35" height="21" viewBox="0 0 35 21" fill="none" xmlns="http://www.w3.org/2000/svg">
<path d="M0.870117 20.5454V0.980863H5.29127V6.18475L4.51036 4.64704C5.1797 3.37865 6.15141 2.41143 7.4255 1.75406C8.69959 1.0938 10.1557 0.763672 11.7909 0.763672C13.6492 0.763672 15.2638 1.21543 16.6377 2.11894C18.0116 3.02246 18.9217 4.38931 19.3679 6.2224L17.5478 5.59978C18.1907 4.13447 19.2563 2.96164 20.7418 2.0813C22.2272 1.20095 23.9476 0.763672 25.9057 0.763672C27.4909 0.763672 28.8942 1.07063 30.1213 1.67877C31.3455 2.2898 32.3055 3.22517 32.9983 4.48198C33.6911 5.73879 34.0375 7.35758 34.0375 9.33546V20.5454H29.3962V9.92043C29.3962 8.1858 29.0116 6.89135 28.2454 6.03706C27.4763 5.18278 26.3754 4.75419 24.9398 4.75419C23.9241 4.75419 23.0258 4.97428 22.2478 5.41445C21.4669 5.85462 20.8622 6.5004 20.4277 7.35758C19.9932 8.21186 19.7789 9.30071 19.7789 10.6183V20.5483H15.1376V9.92333C15.1376 8.1887 14.753 6.89424 13.9868 6.03996C13.2176 5.18567 12.1167 4.75709 10.6812 4.75709C9.66544 4.75709 8.76712 4.97717 7.98916 5.41734C7.20827 5.85752 6.60352 6.5033 6.16903 7.36048C5.73455 8.21476 5.52024 9.30361 5.52024 10.6212V20.5512H0.878915L0.870117 20.5454Z" fill="white"/>
</svg>
