<svg width="21" height="21" viewBox="0 0 21 21" fill="none" xmlns="http://www.w3.org/2000/svg">
<path d="M9.50575 20.8013C7.82066 20.8013 6.33521 20.4885 5.04937 19.8659C3.76061 19.2433 2.75954 18.2906 2.04029 17.0077C1.32105 15.7248 0.962891 14.1089 0.962891 12.1542V0.979004H5.60422V11.5316C5.60422 13.2894 6.00641 14.6041 6.81079 15.47C7.61517 16.3358 8.76009 16.7702 10.2455 16.7702C11.3347 16.7702 12.2829 16.5501 13.0873 16.11C13.8917 15.6698 14.5228 15.0095 14.9808 14.1321C15.4388 13.2517 15.6678 12.1658 15.6678 10.8713V0.979004H20.3091V20.5435H15.8909V15.2673L16.6718 16.8803C16.0024 18.1516 15.0248 19.1217 13.739 19.7935C12.4502 20.4654 11.0411 20.8013 9.50575 20.8013Z" fill="white"/>
</svg>
