<svg width="58" height="53" viewBox="0 0 58 53" fill="none" xmlns="http://www.w3.org/2000/svg">
<path d="M1.19825 5.5294L0 6.03501V52.0324L2.75291 50.8604C2.8819 50.8069 12.2676 46.8557 22.1828 45.8211V41.9067C14.7388 42.6166 7.68168 44.8601 3.94098 46.2229V8.61665C15.1088 4.22686 26.857 3.85853 31.3004 3.90206V0.00448698C26.3411 -0.0524363 13.4658 0.359421 1.19825 5.5294Z" fill="white"/>
<path d="M46.4691 37.8873L36.1872 28.9604C35.3013 28.1936 35.8003 26.7538 36.9782 26.6801L39.2694 26.5361C39.619 26.516 39.9653 26.6299 40.2267 26.8609L46.167 32.0242L57.1175 19.7689C57.6844 19.1327 58.0001 18.3124 58.0001 17.4652V3.41187C58.0001 3.41187 39.9619 11.1133 26.6997 8.20347V50.4741C26.6997 50.4741 42.9694 51.502 58.0001 45.1701V26.5395C58.0001 25.997 57.3212 25.7459 56.958 26.1511L46.4691 37.8873Z" fill="white"/>
</svg>
