<svg width="170" height="29" viewBox="0 0 170 29" fill="none" xmlns="http://www.w3.org/2000/svg">
<path d="M48.9217 20.7713C47.5255 20.7713 46.3077 20.4962 45.2648 19.9478C44.2218 19.3995 43.415 18.6458 42.8424 17.6848C42.2698 16.7257 41.9835 15.6364 41.9835 14.4131C41.9835 13.1899 42.2623 12.0823 42.8182 11.1305C43.3741 10.1787 44.1437 9.43228 45.1235 8.89128C46.1032 8.35028 47.2206 8.07887 48.4755 8.07887C49.7304 8.07887 50.7882 8.34295 51.7456 8.86744C52.7012 9.39377 53.4542 10.1365 54.0045 11.0956C54.5529 12.0548 54.8281 13.1844 54.8281 14.4828C54.8281 14.6075 54.8243 14.7469 54.8169 14.901C54.8095 15.055 54.7965 15.2017 54.7816 15.3411H44.3148V13.4155H53.2292L52.0766 14.0189C52.0914 13.3073 51.9427 12.6819 51.6304 12.1391C51.3162 11.5981 50.8886 11.1726 50.3476 10.8627C49.8066 10.5528 49.1838 10.3987 48.4773 10.3987C47.7709 10.3987 47.1258 10.5528 46.5848 10.8627C46.0438 11.1726 45.6199 11.6018 45.315 12.1501C45.0101 12.6985 44.8558 13.3458 44.8558 14.0867V14.5507C44.8558 15.2934 45.0287 15.95 45.3726 16.5221C45.7166 17.0943 46.2036 17.5363 46.8302 17.8444C47.4567 18.1543 48.178 18.3083 48.9942 18.3083C49.7006 18.3083 50.3346 18.2001 50.8998 17.9837C51.4649 17.7673 51.965 17.4262 52.4056 16.9623L53.9822 18.7485C53.417 19.3977 52.7087 19.8965 51.8535 20.2449C50.9983 20.5934 50.0223 20.7676 48.9254 20.7676L48.9217 20.7713Z" fill="black"/>
<path d="M57.9292 20.6091V4.3681H60.9874V20.6091H57.9292ZM60.7272 13.6476V11.0728H69.7346V13.6476H60.7272ZM69.5003 20.6091V4.3681H72.5586V20.6091H69.5003Z" fill="black"/>
<path d="M82.0164 20.7708C80.9493 20.7708 80.0085 20.5728 79.1943 20.1785C78.3781 19.7842 77.7441 19.1808 77.2887 18.3684C76.8332 17.556 76.6064 16.5327 76.6064 15.2948V8.2178H79.5456V14.9005C79.5456 16.0137 79.8003 16.8463 80.3097 17.3946C80.8191 17.943 81.5442 18.218 82.4849 18.218C83.1746 18.218 83.7751 18.0787 84.2845 17.7999C84.7939 17.5212 85.1936 17.103 85.4836 16.5474C85.7736 15.9899 85.9187 15.3021 85.9187 14.4824V8.2178H88.8579V20.6076H86.0599V17.2662L86.5545 18.2877C86.1306 19.0928 85.5115 19.7072 84.6972 20.1326C83.8811 20.5581 82.9887 20.7708 82.0164 20.7708Z" fill="black"/>
<path d="M92.7108 20.6095V3.39287H95.6501V20.6077H92.7108V20.6095ZM95.1109 17.8476L95.1816 14.2055L101.744 8.21969H105.273L99.6992 13.7416L98.1469 15.0179L95.1128 17.8476H95.1109ZM102.19 20.6095L97.604 15.0179L99.4613 12.6981L105.766 20.6095H102.19Z" fill="black"/>
<path d="M112.705 20.7708C111.638 20.7708 110.697 20.5728 109.883 20.1785C109.067 19.7842 108.433 19.1808 107.977 18.3684C107.522 17.556 107.295 16.5327 107.295 15.2948V8.2178H110.234V14.9005C110.234 16.0137 110.489 16.8463 110.998 17.3946C111.508 17.943 112.233 18.218 113.174 18.218C113.863 18.218 114.464 18.0787 114.973 17.7999C115.483 17.5212 115.882 17.103 116.172 16.5474C116.462 15.9899 116.607 15.3021 116.607 14.4824V8.2178H119.547V20.6076H116.749V17.2662L117.243 18.2877C116.819 19.0928 116.2 19.7072 115.386 20.1326C114.57 20.5581 113.677 20.7708 112.705 20.7708Z" fill="black"/>
<path d="M123.408 20.6093V8.21952H126.208V11.515L125.713 10.5412C126.137 9.73799 126.752 9.12547 127.559 8.70917C128.366 8.29104 129.288 8.08198 130.324 8.08198C131.501 8.08198 132.523 8.36807 133.393 8.94024C134.263 9.51242 134.84 10.378 135.122 11.5389L133.969 11.1446C134.377 10.2166 135.051 9.47391 135.992 8.9164C136.933 8.3589 138.022 8.08198 139.262 8.08198C140.266 8.08198 141.155 8.27637 141.932 8.66149C142.707 9.04844 143.315 9.64079 143.754 10.4367C144.193 11.2326 144.412 12.2578 144.412 13.5103V20.6093H141.473V13.8808C141.473 12.7823 141.229 11.9625 140.744 11.4215C140.257 10.8805 139.56 10.6091 138.651 10.6091C138.007 10.6091 137.439 10.7485 136.946 11.0272C136.451 11.306 136.068 11.7149 135.793 12.2578C135.518 12.7988 135.382 13.4883 135.382 14.3227V20.6112H132.443V13.8826C132.443 12.7841 132.2 11.9643 131.714 11.4233C131.227 10.8823 130.53 10.6109 129.621 10.6109C128.978 10.6109 128.409 10.7503 127.916 11.0291C127.422 11.3078 127.039 11.7168 126.764 12.2596C126.488 12.8006 126.353 13.4901 126.353 14.3246V20.613H123.413L123.408 20.6093Z" fill="black"/>
<path d="M151.96 20.7705C151.019 20.7705 150.196 20.6109 149.491 20.2955C148.786 19.9801 148.24 19.5381 147.857 18.9733C147.472 18.4084 147.281 17.7702 147.281 17.0587C147.281 16.3471 147.45 15.7364 147.786 15.1789C148.123 14.6214 148.677 14.1813 149.445 13.8567C150.212 13.5321 151.231 13.3689 152.503 13.3689H156.149V15.2945H152.715C151.711 15.2945 151.036 15.454 150.692 15.7694C150.346 16.0867 150.175 16.4773 150.175 16.9413C150.175 17.4676 150.387 17.8858 150.811 18.1938C151.235 18.5038 151.822 18.6578 152.575 18.6578C153.328 18.6578 153.944 18.4946 154.516 18.17C155.089 17.8454 155.5 17.3668 155.751 16.7322L156.245 18.4726C155.963 19.2007 155.457 19.7637 154.728 20.1671C153.999 20.5687 153.077 20.7705 151.964 20.7705H151.96ZM155.912 20.6091V18.104L155.747 17.5703V13.1855C155.747 12.3345 155.489 11.6743 154.972 11.2012C154.455 10.7299 153.67 10.4933 152.62 10.4933C151.913 10.4933 151.22 10.6015 150.538 10.8179C149.855 11.0343 149.279 11.3369 148.809 11.722L147.656 9.61121C148.331 9.10138 149.134 8.7181 150.067 8.46319C151.001 8.20828 151.969 8.0799 152.971 8.0799C154.79 8.0799 156.197 8.50903 157.193 9.3673C158.188 10.2256 158.686 11.5515 158.686 13.3469V20.6091H155.911H155.912Z" fill="black"/>
<path d="M160.779 10.5401V8.22018H169.152V10.5401H160.779ZM167.178 20.7714C165.798 20.7714 164.731 20.4193 163.978 19.715C163.225 19.0108 162.85 17.971 162.85 16.5938V5.48217H165.789V16.5259C165.789 17.1146 165.942 17.5694 166.248 17.894C166.553 18.2186 166.981 18.3818 167.529 18.3818C168.187 18.3818 168.736 18.2113 169.176 17.872L170 19.9369C169.654 20.2157 169.232 20.4248 168.73 20.5641C168.228 20.7035 167.712 20.7732 167.178 20.7732V20.7714Z" fill="black"/>
<path d="M70.0378 26.4011V23.7053H72.5271V26.4011H71.8987V24.0721L72.0437 24.2151H70.5211L70.6661 24.0721V26.4011H70.0378Z" fill="black"/>
<path d="M75.0194 26.4468C74.8037 26.4468 74.6029 26.412 74.4207 26.3423C74.2386 26.2726 74.0787 26.1754 73.9448 26.0489C73.811 25.9223 73.7068 25.7756 73.6325 25.6069C73.5581 25.4382 73.5209 25.253 73.5209 25.0531C73.5209 24.8532 73.5581 24.6679 73.6325 24.4992C73.7068 24.3305 73.811 24.182 73.9467 24.0573C74.0824 23.9307 74.2404 23.8335 74.4226 23.7638C74.6048 23.6941 74.8019 23.6593 75.0157 23.6593C75.2295 23.6593 75.4302 23.6941 75.6106 23.7638C75.7909 23.8335 75.9489 23.9307 76.0828 24.0573C76.2166 24.1838 76.3208 24.3305 76.397 24.4974C76.4732 24.6643 76.5104 24.8513 76.5104 25.0531C76.5104 25.2548 76.4732 25.4382 76.397 25.6087C76.3208 25.7793 76.2166 25.9278 76.0828 26.0507C75.9489 26.1754 75.7909 26.2726 75.6106 26.3405C75.4302 26.4101 75.2332 26.445 75.0194 26.445V26.4468ZM75.0157 25.915C75.1384 25.915 75.2499 25.8948 75.354 25.8526C75.4563 25.8123 75.5474 25.7518 75.6255 25.6748C75.7035 25.5977 75.7649 25.506 75.8076 25.4015C75.8504 25.297 75.8727 25.1796 75.8727 25.0512C75.8727 24.9229 75.8504 24.8055 75.8076 24.701C75.7649 24.5964 75.7054 24.5047 75.6273 24.4277C75.5511 24.3507 75.46 24.292 75.3559 24.2498C75.2518 24.2095 75.1384 24.1875 75.0157 24.1875C74.893 24.1875 74.7814 24.2076 74.6773 24.2498C74.5751 24.2902 74.484 24.3507 74.4059 24.4277C74.3278 24.5047 74.2664 24.5964 74.2237 24.701C74.1809 24.8055 74.1586 24.9229 74.1586 25.0512C74.1586 25.1796 74.1809 25.2933 74.2237 25.3997C74.2664 25.506 74.3259 25.5977 74.404 25.6748C74.4802 25.7518 74.5713 25.8105 74.6754 25.8526C74.7796 25.893 74.893 25.915 75.0157 25.915Z" fill="black"/>
<path d="M77.5053 26.4011V23.7053H78.6877C78.9312 23.7053 79.1432 23.7438 79.3198 23.8226C79.4964 23.9015 79.634 24.0134 79.7288 24.1601C79.8255 24.3068 79.8738 24.481 79.8738 24.6827C79.8738 24.8845 79.8255 25.0569 79.7288 25.2017C79.6321 25.3484 79.4964 25.4603 79.3198 25.5392C79.1432 25.618 78.9312 25.6565 78.6877 25.6565H77.8567L78.1374 25.376V26.3993H77.5053V26.4011ZM78.1393 25.4456L77.8585 25.1486H78.6542C78.8494 25.1486 78.9945 25.1082 79.0911 25.0257C79.1878 24.9432 79.2361 24.8295 79.2361 24.6827C79.2361 24.536 79.1878 24.4187 79.0911 24.3361C78.9945 24.2536 78.8494 24.2133 78.6542 24.2133H77.8585L78.1393 23.9162V25.4438V25.4456Z" fill="black"/>
<path d="M81.2822 26.4003V24.0713L81.4272 24.2143H80.4121V23.7063H82.7806V24.2143H81.7656L81.9069 24.0713V26.4003H81.2822Z" fill="black"/>
<path d="M83.2354 26.4011L84.4531 23.7053H85.0778L86.2992 26.4011H85.6355L84.6372 24.0225H84.8863L83.8824 26.4011H83.2354ZM83.8452 25.8234L84.0125 25.3503H85.418L85.5891 25.8234H83.8452Z" fill="black"/>
<path d="M87.2147 26.4433C87.1682 26.4433 87.1199 26.4396 87.0678 26.4323C87.0158 26.4249 86.9619 26.4139 86.9024 26.4011L86.9414 25.8729C86.9786 25.8839 87.0158 25.8876 87.0548 25.8876C87.1608 25.8876 87.2444 25.8454 87.3039 25.7592C87.3634 25.6731 87.4062 25.5502 87.4322 25.387C87.4582 25.2256 87.475 25.0294 87.4824 24.7983L87.5214 23.7053H89.6204V26.4011H88.9957V24.0721L89.1407 24.2151H87.9342L88.0624 24.0647L88.0383 24.7763C88.0308 25.0404 88.0122 25.2751 87.9844 25.4805C87.9565 25.6859 87.9119 25.8601 87.8524 26.005C87.7929 26.1499 87.7111 26.2581 87.607 26.3314C87.5028 26.4066 87.3709 26.4433 87.2128 26.4433H87.2147Z" fill="black"/>
<path d="M90.8115 26.4011V23.7053H91.4399V25.4603L92.7432 23.7053H93.3362V26.4011H92.7116V24.6497L91.4083 26.4011H90.8115Z" fill="black"/>
<path d="M97.6934 26.4011V25.5502L97.8495 25.6841H97.1003C96.8642 25.6841 96.6597 25.6455 96.4868 25.5685C96.3139 25.4915 96.1838 25.3796 96.0927 25.2329C96.0016 25.0862 95.9569 24.912 95.9569 24.7103C95.9569 24.5085 96.0053 24.3196 96.1038 24.1693C96.2023 24.0189 96.3381 23.9052 96.5147 23.8245C96.6913 23.7456 96.8995 23.7053 97.1393 23.7053H98.318V26.4011H97.6934ZM95.9644 26.4011L96.643 25.4346H97.2825L96.6299 26.4011H95.9625H95.9644ZM97.6934 25.3484V24.0519L97.8495 24.2133H97.1542C96.9739 24.2133 96.8382 24.2536 96.7434 24.3361C96.6485 24.4187 96.6002 24.5397 96.6002 24.7011C96.6002 24.8625 96.6448 24.978 96.7359 25.0624C96.827 25.1467 96.9609 25.1889 97.1375 25.1889H97.8477L97.6915 25.3466L97.6934 25.3484Z" fill="black"/>
<path d="M99.5069 26.4011V23.7053H101.435L101.431 24.2133H99.9866L100.132 24.0702L100.135 26.3993H99.5069V26.4011Z" fill="black"/>
<path d="M103.361 26.4468C103.145 26.4468 102.944 26.412 102.762 26.3423C102.58 26.2726 102.42 26.1754 102.286 26.0489C102.152 25.9223 102.048 25.7756 101.974 25.6069C101.9 25.4382 101.862 25.253 101.862 25.0531C101.862 24.8532 101.9 24.6679 101.974 24.4992C102.048 24.3305 102.153 24.182 102.288 24.0573C102.424 23.9307 102.582 23.8335 102.764 23.7638C102.946 23.6941 103.143 23.6593 103.357 23.6593C103.571 23.6593 103.772 23.6941 103.952 23.7638C104.132 23.8335 104.29 23.9307 104.424 24.0573C104.558 24.1838 104.662 24.3305 104.739 24.4974C104.815 24.6643 104.852 24.8513 104.852 25.0531C104.852 25.2548 104.815 25.4382 104.739 25.6087C104.662 25.7793 104.558 25.9278 104.424 26.0507C104.29 26.1754 104.132 26.2726 103.952 26.3405C103.772 26.4101 103.575 26.445 103.361 26.445V26.4468ZM103.357 25.915C103.48 25.915 103.591 25.8948 103.696 25.8526C103.798 25.8123 103.889 25.7518 103.967 25.6748C104.045 25.5977 104.106 25.506 104.149 25.4015C104.192 25.297 104.214 25.1796 104.214 25.0512C104.214 24.9229 104.192 24.8055 104.149 24.701C104.106 24.5964 104.047 24.5047 103.969 24.4277C103.893 24.3507 103.802 24.292 103.697 24.2498C103.593 24.2095 103.48 24.1875 103.357 24.1875C103.235 24.1875 103.123 24.2076 103.019 24.2498C102.917 24.2902 102.825 24.3507 102.747 24.4277C102.669 24.5047 102.608 24.5964 102.565 24.701C102.522 24.8055 102.5 24.9229 102.5 25.0512C102.5 25.1796 102.522 25.2933 102.565 25.3997C102.608 25.506 102.667 25.5977 102.746 25.6748C102.822 25.7518 102.913 25.8105 103.017 25.8526C103.121 25.893 103.235 25.915 103.357 25.915Z" fill="black"/>
<path d="M105.847 26.4011V23.7053H106.479V26.4011H105.847ZM106.431 25.2953V24.7671H107.765V25.2953H106.431ZM107.719 26.4011V23.7053H108.351V26.4011H107.719Z" fill="black"/>
<path d="M109.238 26.4011L110.456 23.7053H111.08L112.302 26.4011H111.638L110.64 24.0225H110.889L109.885 26.4011H109.238ZM109.846 25.8234L110.013 25.3503H111.419L111.59 25.8234H109.846Z" fill="black"/>
<path d="M113.172 26.4011V23.7053H113.801V25.4603L115.104 23.7053H115.697V26.4011H115.072V24.6497L113.769 26.4011H113.172Z" fill="black"/>
<path d="M118.209 26.9578L118.213 25.8923H121.308V26.9578H120.723V26.4003H118.795V26.9578H118.209ZM118.975 25.9767L118.3 25.8923C118.393 25.8942 118.471 25.863 118.533 25.797C118.594 25.7309 118.642 25.6356 118.68 25.5145C118.717 25.3935 118.743 25.2505 118.759 25.0854C118.776 24.9204 118.789 24.7425 118.797 24.5499L118.828 23.7063H120.927V26.1234H120.303V24.2143H119.366L119.354 24.6068C119.347 24.7736 119.336 24.9314 119.321 25.0799C119.306 25.2284 119.286 25.3642 119.256 25.4852C119.228 25.6081 119.191 25.7108 119.144 25.7951C119.098 25.8795 119.042 25.94 118.975 25.9767Z" fill="black"/>
<path d="M121.951 26.4011L123.169 23.7053H123.794L125.015 26.4011H124.351L123.353 24.0225H123.602L122.598 26.4011H121.951ZM122.561 25.8234L122.728 25.3503H124.134L124.305 25.8234H122.561Z" fill="black"/>
<path d="M125.886 26.4011V23.7053H127.157C127.475 23.7053 127.722 23.7658 127.899 23.8868C128.076 24.0079 128.165 24.1803 128.165 24.4022C128.165 24.6241 128.081 24.7946 127.916 24.9156C127.748 25.0385 127.527 25.099 127.252 25.099L127.326 24.9377C127.633 24.9377 127.871 24.9982 128.04 25.1192C128.209 25.2402 128.293 25.4145 128.293 25.6419C128.293 25.8693 128.202 26.0637 128.022 26.1975C127.841 26.3314 127.577 26.3993 127.232 26.3993H125.886V26.4011ZM126.514 24.8221H127.103C127.241 24.8221 127.345 24.7946 127.416 24.7396C127.486 24.6846 127.522 24.6021 127.522 24.4957C127.522 24.3893 127.486 24.3068 127.416 24.2518C127.345 24.1968 127.241 24.1693 127.103 24.1693H126.514V24.824V24.8221ZM126.514 25.939H127.209C127.354 25.939 127.466 25.9115 127.54 25.8546C127.616 25.7978 127.654 25.7116 127.654 25.5924C127.654 25.4732 127.616 25.3961 127.54 25.3393C127.464 25.2843 127.354 25.2568 127.209 25.2568H126.514V25.939Z" fill="black"/>
<path d="M129.33 26.4433C129.284 26.4433 129.235 26.4396 129.183 26.4323C129.131 26.4249 129.077 26.4139 129.018 26.4011L129.057 25.8729C129.094 25.8839 129.131 25.8876 129.17 25.8876C129.276 25.8876 129.36 25.8454 129.419 25.7592C129.479 25.6731 129.522 25.5502 129.548 25.387C129.574 25.2256 129.59 25.0294 129.598 24.7983L129.637 23.7053H131.736V26.4011H131.111V24.0721L131.256 24.2151H130.05L130.178 24.0647L130.154 24.7763C130.146 25.0404 130.128 25.2751 130.1 25.4805C130.072 25.6859 130.027 25.8601 129.968 26.005C129.908 26.1499 129.827 26.2581 129.722 26.3314C129.618 26.4066 129.486 26.4433 129.328 26.4433H129.33Z" fill="black"/>
<path d="M132.618 26.4011L133.836 23.7053H134.46L135.682 26.4011H135.018L134.02 24.0225H134.269L133.265 26.4011H132.618ZM133.226 25.8234L133.393 25.3503H134.799L134.97 25.8234H133.226Z" fill="black"/>
<path d="M137.005 26.4003V24.0713L137.15 24.2143H136.135V23.7063H138.503V24.2143H137.488L137.629 24.0713V26.4003H137.005Z" fill="black"/>
<path d="M139.409 26.4006V23.7047H140.037V25.4598L141.341 23.7047H141.934V26.4006H141.309V24.6492L140.006 26.4006H139.409ZM139.948 23.3783V23.039H141.393V23.3783H139.948Z" fill="black"/>
<path d="M0.656266 3.0283L0 3.30522V28.4975L1.50774 27.8556C1.57839 27.8263 6.71883 25.6623 12.1493 25.0956V22.9518C8.07226 23.3405 4.20717 24.5693 2.15843 25.3157V4.71915C8.2749 2.31491 14.7093 2.11318 17.1429 2.13702V0.00236592C14.4267 -0.0288103 7.37509 0.196759 0.656266 3.0283Z" fill="black"/>
<path d="M25.4535 20.7506L19.8222 15.8615C19.337 15.4415 19.6103 14.6529 20.2554 14.6126L21.5103 14.5337C21.7018 14.5227 21.8914 14.5851 22.0346 14.7116L25.288 17.5395L31.2855 10.8274C31.596 10.479 31.7689 10.0297 31.7689 9.5657V1.86884C31.7689 1.86884 21.8896 6.0868 14.626 4.49314V27.6443C14.626 27.6443 23.5367 28.2073 31.7689 24.7394V14.5356C31.7689 14.2385 31.397 14.1009 31.1981 14.3228L25.4535 20.7506Z" fill="#26AC71"/>
</svg>
