<svg width="27" height="19" viewBox="0 0 27 19" fill="none" xmlns="http://www.w3.org/2000/svg">
<path d="M23.218 0H3.33082C1.49454 0 0 1.49445 0 3.33082V15.6692C0 17.5055 1.49445 19 3.33082 19H23.2169C25.0532 19 26.5477 17.5056 26.5477 15.6692V3.33082C26.5477 1.49454 25.0533 0 23.2169 0H23.218ZM3.33082 1.7699H23.2169C24.0775 1.7699 24.7777 2.47014 24.7777 3.33073V3.98782C24.7777 4.5401 24.33 4.98782 23.7777 4.98782H2.7701C2.21782 4.98782 1.7701 4.5401 1.7701 3.98782V3.33073C1.7701 2.47011 2.47022 1.7699 3.33082 1.7699ZM23.218 17.2301H3.33082C2.47019 17.2301 1.76999 16.5299 1.76999 15.6693V7.75773C1.76999 7.20544 2.21771 6.75772 2.76999 6.75772H23.7788C24.331 6.75772 24.7788 7.20544 24.7788 7.75772V15.6693C24.7788 16.5299 24.0786 17.2301 23.218 17.2301Z" fill="#26AC71"/>
<path d="M9.21914 9.3374C8.85633 9.00884 8.29658 9.03762 7.96914 9.39934C7.64172 9.76216 7.66825 10.3208 8.03108 10.6493L8.66383 11.2223H1.88495C1.39601 11.2223 1 11.6184 1 12.1073C1 12.5962 1.39601 12.9922 1.88495 12.9922H8.66383L8.03219 13.563C7.66937 13.8905 7.6406 14.4502 7.96803 14.813C8.14281 15.0066 8.38397 15.1051 8.6251 15.1051C8.83638 15.1051 9.04878 15.0298 9.21803 14.8772L11.5543 12.7666C11.7401 12.5984 11.8463 12.3606 11.8463 12.1106C11.8463 11.8606 11.7412 11.6217 11.5554 11.4546L9.21914 9.33959L9.21914 9.3374Z" fill="#26AC71"/>
</svg>
