<svg width="28" height="28" viewBox="0 0 28 28" fill="none" xmlns="http://www.w3.org/2000/svg">
<path d="M13.6921 27.3842C21.2634 27.3842 27.3842 21.2224 27.3842 13.6921C27.3842 6.16185 21.2634 0 13.6921 0C6.12078 0 0 6.16185 0 13.6921C0 21.2224 6.16185 27.3842 13.6921 27.3842ZM12.6853 6.56456C12.6853 6.00141 13.129 5.55779 13.6921 5.55779C14.2553 5.55779 14.6989 6.00141 14.6989 6.56456V11.7957C14.6989 12.7521 15.0788 13.6693 15.7551 14.3456L19.4513 18.0418C19.854 18.4445 19.854 19.0895 19.4513 19.4513C19.2499 19.6526 19.0076 19.7328 18.7261 19.7328C18.4838 19.7328 18.2022 19.6526 18.0009 19.4513L12.967 14.4174C12.7656 14.216 12.6854 13.9738 12.6854 13.6922L12.6853 6.56456Z" fill="#E7E7E7"/>
</svg>
