<svg width="47" height="12" viewBox="0 0 47 12" fill="none" xmlns="http://www.w3.org/2000/svg">
<path d="M8.17798 0.161414C9.04305 0.161414 9.74433 0.862693 9.74433 1.72776V10.9358H8.89069C8.13295 10.9358 7.51867 10.3215 7.51867 9.56376C7.1446 10.048 6.67703 10.4246 6.11594 10.6937C5.5673 10.9492 4.9688 11.077 4.32042 11.077C2.98627 11.077 1.93266 10.6802 1.15959 9.88659C0.386534 9.0795 0 7.88907 0 6.31531V0.161414H0.771541C1.63661 0.161414 2.33789 0.862693 2.33789 1.72776V5.97233C2.33789 6.9408 2.53739 7.66717 2.93639 8.15138C3.34786 8.62218 3.93389 8.8576 4.69448 8.8576C5.51745 8.8576 6.17204 8.58182 6.6583 8.03036C7.15709 7.46537 7.40644 6.65834 7.40644 5.60915V0.161414H8.17798ZM23.9603 10.9358C23.0953 10.9358 22.394 10.2345 22.394 9.36943V3.79322L19.0274 9.80587H18.0175L14.707 3.77304V9.36943C14.707 10.2345 14.0057 10.9358 13.1407 10.9358H12.5749V0.161414H15.0249L18.5785 6.90044L22.3005 0.161414H24.4887L24.5074 10.9358H23.9603ZM33.1551 5.32663C33.7785 5.51496 34.2586 5.82436 34.5952 6.2548C34.9443 6.67176 35.1189 7.17617 35.1189 7.76805C35.1189 8.42717 34.9132 9.01225 34.5017 9.5234C34.0902 10.0211 33.5229 10.4112 32.7997 10.6937C32.0765 10.9761 31.2536 11.1174 30.3309 11.1174C29.5578 11.1174 28.8035 11.0232 28.0678 10.8349C27.6084 10.7089 27.1757 10.5514 26.7697 10.3624C26.3491 10.1666 26.1792 9.67374 26.3358 9.23706C26.5445 8.65557 27.2377 8.41365 27.8194 8.62179C28.0018 8.68707 28.1906 8.74548 28.3858 8.79703C28.9967 8.95847 29.6077 9.03919 30.2187 9.03919C31.0042 9.03919 31.6152 8.91138 32.0516 8.6558C32.5005 8.38681 32.7249 8.02362 32.7249 7.56625C32.7249 7.14929 32.5504 6.82646 32.2012 6.59777C31.8645 6.36914 31.3845 6.2548 30.7611 6.2548H28.8159V6.12629C28.8159 5.26122 29.5172 4.55994 30.3823 4.55994H30.574C31.1601 4.55994 31.6152 4.45233 31.9394 4.23711C32.276 4.02189 32.4444 3.71924 32.4444 3.32916C32.4444 2.93908 32.2449 2.6297 31.8459 2.40103C31.4469 2.17236 30.8982 2.05803 30.2 2.05803C29.5165 2.05803 28.8067 2.18117 28.0705 2.42746C27.5109 2.61467 26.8786 2.34694 26.6975 1.78534C26.5496 1.32679 26.7561 0.823435 27.2027 0.642794C28.2623 0.214265 29.33 0 30.4057 0C31.2536 0 32.0142 0.127786 32.6875 0.383358C33.3608 0.62548 33.8845 0.975209 34.2586 1.43255C34.6451 1.87643 34.8383 2.38758 34.8383 2.96598C34.8383 3.49057 34.6887 3.96136 34.3895 4.37835C34.0902 4.78188 33.6788 5.09798 33.1551 5.32663ZM41.6696 11.077C40.6596 11.077 39.7494 10.8416 38.9389 10.3708C38.1285 9.90006 37.4926 9.24767 37.0312 8.41369C36.5823 7.56625 36.3579 6.61124 36.3579 5.54858C36.3579 4.48596 36.5823 3.53765 37.0312 2.70368C37.4926 1.86971 38.1285 1.21733 38.9389 0.746538C39.7494 0.275749 40.6596 0.0403539 41.6696 0.0403539C42.692 0.0403539 43.6085 0.275749 44.419 0.746538C45.2294 1.21733 45.8591 1.86971 46.308 2.70368C46.7693 3.53765 47 4.48596 47 5.54858C47 6.61124 46.7693 7.56625 46.308 8.41369C45.8591 9.24767 45.2294 9.90006 44.419 10.3708C43.6085 10.8416 42.692 11.077 41.6696 11.077ZM41.6696 8.91811C42.5299 8.91811 43.2407 8.60871 43.8017 7.99C44.3628 7.37124 44.6434 6.55741 44.6434 5.54858C44.6434 4.53976 44.3628 3.72597 43.8017 3.10722C43.2407 2.48846 42.5299 2.17908 41.6696 2.17908C40.8093 2.17908 40.0985 2.48846 39.5374 3.10722C38.9888 3.72597 38.7145 4.53976 38.7145 5.54858C38.7145 6.55741 38.9888 7.37124 39.5374 7.99C40.0985 8.60871 40.8093 8.91811 41.6696 8.91811Z" fill="white"/>
</svg>
