<svg width="30" height="30" viewBox="0 0 30 30" fill="none" xmlns="http://www.w3.org/2000/svg">
<path d="M14.5875 0.477148C14.5878 0.477764 14.5874 0.478466 14.5867 0.478466C13.677 0.478734 12.7674 0.731693 11.9709 1.2388L3.0002 6.95397C1.4269 7.95552 0.475586 9.6909 0.475586 11.5574V25.1774C0.475586 27.1128 2.06507 28.7041 4.00007 28.7026H7.53335C9.46835 28.7026 11.0593 27.1128 11.0593 25.1774V20.4667C11.0593 19.8035 11.5754 19.2946 12.24 19.2946H16.9365C17.5996 19.2946 18.1172 19.8035 18.1172 20.4667V25.1654C18.1172 27.1008 19.7082 28.6906 21.6432 28.6906H25.1765C27.1114 28.6891 28.7024 27.1008 28.7024 25.1654V11.5544C28.7024 9.68807 27.7496 7.94385 26.1749 6.9423C26.1749 6.9423 18.0026 1.74356 17.2057 1.23616C16.4091 0.729028 15.498 0.476099 14.5884 0.47583C14.5877 0.47583 14.5873 0.476531 14.5875 0.477148Z" fill="#5EB681" stroke="#F9F9F9" stroke-width="0.951467"/>
</svg>
