<svg width="18" height="19" viewBox="0 0 18 19" fill="none" xmlns="http://www.w3.org/2000/svg">
<path d="M7.5195 0.527505C7.95227 0.225604 8.42598 0 9.00004 0C9.5741 0 10.0478 0.225624 10.4798 0.527505C10.882 0.808523 11.3277 1.21317 11.8415 1.68048L14.5705 4.16138C15.6905 5.17945 16.6066 6.01206 17.1864 6.72819C17.7742 7.4532 18.2198 8.3067 17.885 9.27733C17.669 9.902 17.2322 10.2898 16.7071 10.5427C16.7079 10.7065 16.7079 10.8775 16.7079 11.0566V11.1545C16.7079 12.4496 16.7079 13.4942 16.614 14.3268C16.5168 15.1884 16.3105 15.9294 15.8231 16.5646C15.5951 16.8609 15.3293 17.1266 15.0322 17.3547C14.3971 17.842 13.6569 18.0484 12.7953 18.1455C12.4292 18.1873 12.0213 18.2106 11.5693 18.2234V16.5269C11.5693 15.1082 10.4187 13.9576 9 13.9576C7.58128 13.9576 6.43071 15.1082 6.43071 16.5269V18.2234C5.97869 18.2106 5.57081 18.1873 5.20469 18.1455C4.34318 18.0484 3.6029 17.842 2.96777 17.3547C2.6707 17.1266 2.40494 16.8609 2.17691 16.5646C1.68954 15.9295 1.4832 15.1884 1.38604 14.3268C1.2921 13.4942 1.2921 12.4497 1.2921 11.1545V11.0566C1.2921 10.8775 1.2921 10.7065 1.2929 10.5427C0.767804 10.2898 0.331025 9.90198 0.115041 9.27733C-0.219767 8.30662 0.225841 7.45314 0.813557 6.72819C1.39325 6.012 2.30935 5.17939 3.4295 4.16138L6.15849 1.68048C6.67235 1.2132 7.11805 0.808523 7.5195 0.527505Z" fill="#5EB681"/>
</svg>
