<svg width="16" height="16" viewBox="0 0 16 16" fill="none" xmlns="http://www.w3.org/2000/svg">
<path d="M7.52154 0.345482C7.67122 -0.115173 8.32292 -0.115172 8.4726 0.345483L10.0177 5.10081C10.0846 5.30682 10.2766 5.4463 10.4932 5.4463H15.4933C15.9776 5.4463 16.179 6.0661 15.7872 6.35081L11.742 9.28976C11.5668 9.41708 11.4935 9.64276 11.5604 9.84877L13.1055 14.6041C13.2552 15.0648 12.7279 15.4478 12.3361 15.1631L8.29096 12.2242C8.11572 12.0968 7.87842 12.0968 7.70318 12.2242L3.65806 15.1631C3.2662 15.4478 2.73896 15.0647 2.88864 14.6041L4.43374 9.84877C4.50067 9.64276 4.42734 9.41708 4.2521 9.28975L0.206981 6.3508C-0.184876 6.0661 0.0165135 5.4463 0.500875 5.4463H5.50092C5.71753 5.4463 5.90951 5.30682 5.97644 5.10081L7.52154 0.345482Z" fill="#D9D9D9"/>
</svg>
