<svg width="22" height="26" viewBox="0 0 22 26" fill="none" xmlns="http://www.w3.org/2000/svg">
<path fill-rule="evenodd" clip-rule="evenodd" d="M21.5398 13.4088C21.5398 13.2367 21.4712 13.0716 21.3491 12.9499C21.227 12.8281 21.0614 12.7598 20.8887 12.7598C17.7085 12.7598 3.83134 12.7598 0.651043 12.7598C0.478373 12.7598 0.31278 12.8281 0.190687 12.9499C0.0685935 13.0716 0 13.2367 0 13.4088C0 13.6569 0 13.9396 0 14.1876C0 14.3598 0.0685935 14.5249 0.190687 14.6466C0.31278 14.7683 0.478373 14.8367 0.651043 14.8367C3.83129 14.8367 17.7084 14.8367 20.8887 14.8367C21.0614 14.8367 21.227 14.7683 21.3491 14.6466C21.4712 14.5249 21.5398 14.3598 21.5398 14.1876C21.5398 13.9396 21.5398 13.6569 21.5398 13.4088Z" fill="#E7E7E7"/>
<path fill-rule="evenodd" clip-rule="evenodd" d="M14.6549 1.20805V2.99644C14.6549 3.30511 14.4039 3.55532 14.0943 3.55532H11.3301C11.0205 3.55532 10.7695 3.30511 10.7695 2.99644V1.20805C10.7695 0.899396 11.0205 0.64917 11.3301 0.64917H14.0943C14.4039 0.64917 14.6549 0.899396 14.6549 1.20805Z" fill="#E7E7E7"/>
<path fill-rule="evenodd" clip-rule="evenodd" d="M11.4212 0.649024V3.99896C11.206 3.98488 10.9889 3.97773 10.7702 3.97773C10.5514 3.97773 10.3343 3.98488 10.1191 3.99896V0.649024C10.1191 0.290819 10.4109 0 10.7702 0C11.1295 0 11.4212 0.290819 11.4212 0.649024Z" fill="#E7E7E7"/>
<path d="M12.4182 24.3516V17.7833C12.4182 16.8728 11.6801 16.1348 10.7696 16.1348C9.85917 16.1348 9.12109 16.8728 9.12109 17.7833V24.3516C9.12109 25.262 9.85917 26.0001 10.7696 26.0001C11.6801 26.0001 12.4182 25.262 12.4182 24.3516Z" fill="#E7E7E7"/>
<path d="M20.2561 24.3516V17.7833C20.2561 16.8728 19.518 16.1348 18.6075 16.1348C17.6971 16.1348 16.959 16.8728 16.959 17.7833V24.3516C16.959 25.262 17.6971 26.0001 18.6075 26.0001C19.518 26.0001 20.2561 25.262 20.2561 24.3516Z" fill="#E7E7E7"/>
<path d="M4.58028 24.3516V17.7833C4.58028 16.8728 3.8422 16.1348 2.93174 16.1348C2.02128 16.1348 1.2832 16.8728 1.2832 17.7833V24.3516C1.2832 25.262 2.02128 26.0001 2.93174 26.0001C3.8422 26.0001 4.58028 25.262 4.58028 24.3516Z" fill="#E7E7E7"/>
<path fill-rule="evenodd" clip-rule="evenodd" d="M10.1193 4.30033C10.3342 4.28413 10.5513 4.27588 10.7704 4.27588C10.9894 4.27588 11.2065 4.28413 11.4214 4.30033C14.9845 4.56906 17.9348 7.02516 18.9247 10.3251C19.1008 10.9122 18.6285 11.4616 18.0155 11.4616H3.52518C2.91223 11.4616 2.43986 10.9122 2.61598 10.325C3.60587 7.02516 6.5562 4.56906 10.1193 4.30033H10.1193Z" fill="#E7E7E7"/>
</svg>
